<svg width="21" height="23" viewBox="0 0 21 23" fill="none" xmlns="http://www.w3.org/2000/svg">
    <g clip-path="url(#clip0_4080_1812)">
        <path d="M10.5 23C6.88101 23 3.9375 19.7762 3.9375 15.8125V5.75C3.9375 5.22006 4.32955 4.79173 4.81245 4.79173C5.2955 4.79173 5.68755 5.22006 5.68755 5.75V15.8125C5.68755 18.7182 7.84616 21.0833 10.5 21.0833C13.1538 21.0833 15.3124 18.7182 15.3124 15.8125V5.27077C15.3124 3.42126 13.9387 1.91673 12.2501 1.91673C10.5612 1.91673 9.1875 3.42126 9.1875 5.27077V14.8542C9.1875 15.6467 9.7763 16.2917 10.5 16.2917C11.2237 16.2917 11.8125 15.6467 11.8125 14.8542V5.75C11.8125 5.22006 12.2046 4.79173 12.6874 4.79173C13.1705 4.79173 13.5626 5.22006 13.5626 5.75V14.8542C13.5626 16.7037 12.1887 18.2083 10.5 18.2083C8.81131 18.2083 7.43745 16.7037 7.43745 14.8542V5.27077C7.43745 2.36524 9.59605 0 12.2501 0C14.9039 0 17.0625 2.36524 17.0625 5.27077V15.8125C17.0625 19.7762 14.119 23 10.5 23Z" fill="white"/>
    </g>
    <defs>
        <clipPath id="clip0_4080_1812">
            <rect width="21" height="23" fill="white"/>
        </clipPath>
    </defs>
</svg>
