<svg width="23" height="23" viewBox="0 0 23 23" fill="none" xmlns="http://www.w3.org/2000/svg">
    <path d="M11.5 0C5.14874 0 0 5.14874 0 11.5C0 17.8513 5.14874 23 11.5 23C17.8513 23 23 17.8513 23 11.5C22.9933 5.15158 17.8485 0.00678643 11.5 0ZM11.5 21.3572C6.05605 21.3572 1.64285 16.944 1.64285 11.5C1.64285 6.05605 6.05605 1.64285 11.5 1.64285C16.944 1.64285 21.3572 6.05605 21.3572 11.5C21.3513 16.9416 16.9416 21.3513 11.5 21.3572Z" fill="white"/>
    <path d="M7.39285 11.5005C8.30017 11.5005 9.0357 10.765 9.0357 9.85769C9.0357 8.95037 8.30017 8.21484 7.39285 8.21484C6.48553 8.21484 5.75 8.95037 5.75 9.85769C5.75 10.765 6.48553 11.5005 7.39285 11.5005Z" fill="white"/>
    <path d="M15.6072 11.5005C16.5145 11.5005 17.25 10.765 17.25 9.85769C17.25 8.95037 16.5145 8.21484 15.6072 8.21484C14.6999 8.21484 13.9644 8.95037 13.9644 9.85769C13.9644 10.765 14.6999 11.5005 15.6072 11.5005Z" fill="white"/>
    <path d="M14.6456 14.2755C14.3743 13.9119 13.8596 13.8371 13.496 14.1085C13.4803 14.1202 13.465 14.1325 13.4502 14.1454C12.2885 14.9938 10.7116 14.9938 9.54999 14.1454C9.20677 13.8487 8.68802 13.8865 8.39139 14.2297C8.09471 14.5729 8.13249 15.0917 8.47571 15.3883C8.49054 15.4011 8.50584 15.4134 8.52158 15.4252C10.2798 16.7691 12.7203 16.7691 14.4786 15.4252C14.8422 15.1538 14.917 14.6391 14.6456 14.2755Z" fill="white"/>
</svg>
