<svg width="16" height="17" viewBox="0 0 16 17" fill="none" xmlns="http://www.w3.org/2000/svg">
    <path d="M2 3.83333H6.66667M6.66667 3.83333C6.66667 4.56971 7.26362 5.16667 8 5.16667C8.73638 5.16667 9.33333 4.56971 9.33333 3.83333M6.66667 3.83333C6.66667 3.09695 7.26362 2.5 8 2.5C8.73638 2.5 9.33333 3.09695 9.33333 3.83333M2 8.5H8M12.6667 8.5H14M12.6667 8.5C12.6667 9.23638 12.0697 9.83333 11.3333 9.83333C10.597 9.83333 10 9.23638 10 8.5C10 7.76362 10.597 7.16667 11.3333 7.16667C12.0697 7.16667 12.6667 7.76362 12.6667 8.5ZM9.33333 3.83333H14M8 13.1667H14M2 13.1667H3.33333M3.33333 13.1667C3.33333 13.903 3.93029 14.5 4.66667 14.5C5.40305 14.5 6 13.903 6 13.1667C6 12.4303 5.40305 11.8333 4.66667 11.8333C3.93029 11.8333 3.33333 12.4303 3.33333 13.1667Z" stroke="white" stroke-width="1.5" stroke-linecap="round"/>
</svg>
