<svg width="23" height="23" viewBox="0 0 23 23" fill="none" xmlns="http://www.w3.org/2000/svg">
    <g clip-path="url(#clip0_3338_6389)">
        <path d="M18.8599 11.8782C18.8599 11.4182 18.5081 11.0664 18.0481 11.0664C17.5881 11.0664 17.2364 11.4182 17.2364 11.8782C17.2364 15.0441 14.6658 17.6146 11.4999 17.6146C8.33401 17.6146 5.76342 15.0441 5.76342 11.8782C5.76342 11.4182 5.41166 11.0664 4.95166 11.0664C4.49166 11.0664 4.13989 11.4182 4.13989 11.8782C4.13989 15.6394 6.95401 18.8052 10.6881 19.2111V21.3758H7.73872C7.27872 21.3758 6.92695 21.7276 6.92695 22.1876C6.92695 22.6476 7.27872 22.9994 7.73872 22.9994H15.2611C15.7211 22.9994 16.0728 22.6476 16.0728 22.1876C16.0728 21.7276 15.7211 21.3758 15.2611 21.3758H12.3117V19.2111C16.0458 18.8052 18.8599 15.6394 18.8599 11.8782Z" fill="white"/>
        <path d="M11.5 0C9.01061 0 6.9812 2.02941 6.9812 4.51882V11.8518C6.9812 14.3682 9.01061 16.3706 11.5 16.3976C13.9894 16.3976 16.0188 14.3682 16.0188 11.8788V4.51882C16.0188 2.02941 13.9894 0 11.5 0Z" fill="white"/>
    </g>
    <defs>
        <clipPath id="clip0_3338_6389">
            <rect width="23" height="23" fill="white"/>
        </clipPath>
    </defs>
</svg>
