<svg width="24" height="24" viewBox="0 0 24 24" fill="none" xmlns="http://www.w3.org/2000/svg">
    <path fill-rule="evenodd" clip-rule="evenodd" d="M10.8405 0.0562771C8.70016 0.311808 7.04746 0.897019 5.41315 1.97806C2.23225 4.08226 0.260283 7.47031 0.0241576 11.237C-0.213824 15.0332 1.31699 18.6883 4.15258 21.0942C5.93402 22.6058 7.86729 23.5012 10.2023 23.8963C11.0743 24.0439 13.0563 24.0318 13.9338 23.8737C14.3384 23.8008 14.6335 23.7165 14.7025 23.6541C14.8472 23.5234 14.846 23.2695 14.7002 23.1377C14.575 23.0246 14.6407 23.022 13.2772 23.1962C10.5028 23.5505 7.43437 22.7103 5.15492 20.9721C4.66271 20.5968 3.66814 19.623 3.25321 19.1101C2.512 18.194 1.85677 17.0624 1.43273 15.9661C0.594106 13.7981 0.489852 11.172 1.15176 8.89116C1.88566 6.36245 3.62794 4.0179 5.85111 2.56738C7.14 1.72646 8.53348 1.19067 10.2313 0.883116C11.0068 0.742693 12.9996 0.743156 13.7703 0.884043C16.2631 1.33955 18.1114 2.26452 19.7953 3.89926C21.5773 5.62928 22.6483 7.61681 23.1431 10.1124C23.2689 10.747 23.3175 12.4483 23.2314 13.2012C22.9405 15.7439 21.8432 18.07 20.0959 19.848C19.521 20.4329 19.1502 20.7157 18.5921 20.9943C16.3727 22.1026 13.6805 21.3669 12.282 19.2699C11.9416 18.7595 11.5415 17.9809 11.1574 17.0818L10.8478 16.3569L10.0029 16.0595C9.5382 15.8959 8.84474 15.6531 8.46183 15.5198C7.2178 15.0867 7.06817 15.0285 7.15647 15.0118C7.20434 15.0028 8.01325 15.2155 8.9541 15.4847C9.89489 15.7538 10.6676 15.9693 10.6712 15.9635C10.6883 15.9358 9.55671 13.4285 9.50612 13.382C9.47421 13.3527 9.0565 13.1806 8.57787 12.9995C8.09923 12.8184 7.38129 12.5438 6.98243 12.3894C6.58357 12.2349 6.10528 12.052 5.91963 11.983C5.73398 11.914 5.59445 11.8451 5.60965 11.83C5.62479 11.8148 6.45204 12.0532 7.44795 12.3599C8.44385 12.6664 9.27156 12.9044 9.28734 12.8887C9.30307 12.8729 9.15872 12.5133 8.96663 12.0893C8.77448 11.6654 8.53244 11.1152 8.42876 10.8666C8.32509 10.6181 8.19873 10.3926 8.14797 10.3655C8.09726 10.3385 7.52052 10.1169 6.86639 9.87308C5.68368 9.43223 5.3701 9.28393 5.76589 9.3527C5.87658 9.37187 6.03241 9.41051 6.11219 9.43849C6.57643 9.60127 8.03286 9.94196 8.00693 9.88171C7.99051 9.84354 7.75062 9.29094 7.47382 8.65371C7.19708 8.01648 6.89326 7.3165 6.79863 7.09822C6.42466 6.23524 6.71955 6.72527 7.47452 8.22137C8.36709 9.99022 8.26307 9.90518 8.60629 9.14612C9.07338 8.11305 9.36764 7.51132 9.39317 7.53681C9.40825 7.55188 9.21239 8.16785 8.95799 8.90571L8.49537 10.2473L9.12589 11.507C9.74283 12.7395 9.75791 12.763 9.82364 12.593C9.8606 12.4974 10.0213 12.1091 10.1808 11.7303C10.3403 11.3513 10.6011 10.7152 10.7603 10.3166C11.2786 9.01948 11.4435 8.83132 11.0391 9.99862C10.909 10.3741 10.7547 10.8246 10.6963 10.9999C10.6378 11.1751 10.4441 11.7321 10.2657 12.2377L9.94136 13.1569L10.5928 14.4285C11.0836 15.3867 11.255 15.6743 11.2878 15.5949C11.3118 15.5369 11.6148 14.8508 11.9612 14.0702C13.098 11.5085 13.0584 11.7639 11.7997 15.1129L11.4404 16.0688L11.8876 16.9699L12.3348 17.8711L12.8809 17.3175L13.4269 16.7639L13.3932 16.4357C13.3717 16.2265 13.3824 16.0933 13.4227 16.0685C13.4682 16.0404 13.4682 16.0082 13.4225 15.9533C13.3549 15.872 13.4024 15.5764 13.483 15.5764C13.5095 15.5764 13.5493 15.7594 13.5714 15.9832C13.5934 16.2069 13.6318 16.4025 13.6566 16.4178C13.6814 16.4331 14.0192 16.1132 14.4073 15.7069L15.113 14.9681L15.0791 14.0123C15.0604 13.4865 15.0312 12.8088 15.0142 12.5061C14.9582 11.5137 15.0858 12.0758 15.2178 13.4029C15.2874 14.1034 15.3492 14.6796 15.3551 14.6834C15.3609 14.6872 15.6866 14.3488 16.0789 13.9313L16.792 13.1723L16.7591 12.6219C16.7411 12.3192 16.7119 11.863 16.6943 11.6082C16.6457 10.9072 16.7557 11.1433 16.8696 11.9847C16.9235 12.383 16.9824 12.7589 17.0005 12.8202C17.0274 12.9113 17.192 12.7688 17.9038 12.0382C18.7922 11.1262 18.8812 11.0618 18.2577 11.7819C17.678 12.4514 17.1899 13.0436 17.2066 13.0572C17.2253 13.0725 18.3321 13.1388 18.7017 13.1468C19.2488 13.1587 18.6792 13.2508 17.8145 13.2902L16.9564 13.3294L16.2916 14.1032C15.9259 14.5288 15.6268 14.8948 15.6268 14.9167C15.6268 14.9386 16.2143 14.9422 16.9323 14.9247C17.6504 14.9072 18.2498 14.9122 18.2645 14.9358C18.2791 14.9594 17.8417 15.0099 17.2925 15.0481C16.7433 15.0862 16.0851 15.1332 15.8299 15.1526L15.3657 15.1878L14.6986 15.9709C14.3316 16.4016 14.0249 16.7693 14.0169 16.7879C14.0089 16.8066 14.1656 16.824 14.365 16.8265C16.2868 16.8508 16.6292 16.8634 16.5239 16.906C16.4588 16.9324 15.8777 16.9731 15.2326 16.9967C14.5874 17.0202 13.9852 17.0556 13.8942 17.0755C13.7798 17.1004 13.5927 17.2721 13.2863 17.6329C13.0429 17.9197 12.8433 18.1711 12.8429 18.1918C12.8418 18.2397 13.4371 18.3411 14.0169 18.3917C15.4323 18.6535 14.4665 18.412 14.4665 18.365C14.4665 18.3232 14.5915 18.2991 14.8084 18.2991C16.0789 18.4508 15.1592 18.2759 15.1837 18.2122C15.2063 18.1532 15.2989 18.1253 15.4721 18.1253C16.9323 18.248 15.779 18.0852 15.8656 18.0182C15.9417 17.9593 16.1179 17.8933 16.2571 17.8716C17.5208 17.8136 16.553 17.7841 16.6052 17.7253C16.6574 17.6665 16.8241 17.5857 16.9757 17.5457C18.101 17.3791 17.2513 17.4392 17.2513 17.3979C17.2513 17.3566 17.3968 17.2563 17.5746 17.175C17.7524 17.0937 18.5651 16.906 17.8649 16.9739C17.8467 16.9446 17.9623 16.837 18.1217 16.7349C19.1453 16.2784 18.4116 16.5133 18.4116 16.4694C18.4116 16.4256 18.5287 16.282 18.6719 16.1502C19.609 15.5434 18.9173 15.8864 18.899 15.8568C18.8806 15.8272 18.9735 15.6862 19.1053 15.5434C19.9575 14.8881 19.3278 15.2563 19.3069 15.2225C19.2861 15.1889 19.3526 15.045 19.4548 14.9031C20.1316 14.135 19.6263 14.6078 19.609 14.5627C19.5916 14.5175 19.644 14.3615 19.7254 14.2161C20.2766 13.3819 19.8589 13.9139 19.8412 13.8678C19.8235 13.8217 19.8621 13.664 19.9271 13.5174C20.4216 12.6288 20.0295 13.21 20.0104 13.1602C19.9912 13.1103 20.0267 12.9333 20.0891 12.7667C20.4797 11.9336 20.1835 12.4447 20.1439 12.4053C20.1044 12.3658 20.1151 12.2463 20.1768 12.0389C20.5377 11.1805 20.2499 11.7196 20.2045 11.6916C20.1583 11.6631 20.1598 11.5601 20.2101 11.3185C20.5087 10.3695 20.2612 10.9735 20.2173 10.9464C20.1753 10.9205 20.1715 10.8058 20.2055 10.5919C20.4506 9.77576 20.2354 10.2631 20.1952 10.238C20.1571 10.2142 20.1491 10.0782 20.1737 9.86938L20.2126 9.53842L20.0518 9.58013C19.8795 9.62479 19.1587 9.67896 18.8061 9.67375C18.688 9.67201 19.2613 9.32677 18.3631 9.75102C18.2171 9.80247 18.1148 9.81139 18.0791 9.77576C18.0434 9.74013 18.4491 9.41367 17.7256 9.83728C17.5618 9.9017 17.3904 9.94017 17.3448 9.92267C17.2991 9.90512 17.6659 9.50056 17.0723 9.9886C16.9682 10.0424 16.7996 10.0941 16.6976 10.1036C16.5957 10.1131 17.0567 9.58746 16.2683 10.2451C16.134 10.3135 15.9936 10.3583 15.9561 10.3448C15.9186 10.3312 16.2683 9.75102 15.6097 10.5169C15.4567 10.6252 15.3064 10.6984 15.2758 10.6795C15.2451 10.6605 15.6097 9.9886 14.9678 10.8515C14.8291 10.965 14.6747 11.0578 14.6246 11.0578C14.5745 11.0578 14.8811 10.3985 14.3349 11.2895C14.2257 11.417 14.0966 11.5213 14.048 11.5213C13.9995 11.5213 14.1559 10.9831 13.8048 11.7551C13.7196 11.8836 13.6247 11.9733 13.594 11.9544C13.5634 11.9355 13.5382 11.716 13.5382 11.4667C13.594 10.2826 13.5258 11.0101 13.4222 10.9831C13.3445 10.9628 13.3062 10.9041 13.3062 10.8054C13.2277 9.09505 13.1827 10.0801 13.0931 10.062C13.0389 10.051 12.9495 9.8703 12.8635 9.59751C12.6765 8.51575 12.7014 9.15921 12.6385 9.18331C12.578 9.20648 12.4977 9.09149 12.3534 8.7753C12.0408 7.50197 12.1236 8.33509 12.0408 8.33509C11.9646 8.33509 11.8588 8.21518 11.7082 7.95791C11.3421 6.86474 11.461 7.58895 11.3943 7.61015C11.3304 7.63037 11.2123 7.52187 11.0163 7.26274C10.5879 6.3144 10.7122 6.90485 10.6721 6.94494C10.6319 6.98509 10.4982 6.89054 10.2551 6.64996C9.71768 5.70613 9.88218 6.32022 9.85712 6.36077C9.83165 6.4019 9.68986 6.31083 9.46998 6.11213C8.81844 5.24269 9.08864 5.80754 9.01328 5.82723C8.9411 5.84606 8.79102 5.76426 8.57421 5.58798C7.86117 4.92407 8.22437 5.33703 8.17576 5.37735C8.12737 5.41743 7.98773 5.35504 7.71128 5.16978C6.90391 4.46274 7.30296 4.92595 7.27355 4.97351C7.24379 5.02154 7.11581 4.97154 6.8447 4.80581C5.91876 4.08408 6.34425 4.52618 6.34425 4.63277C6.34425 4.66753 6.1528 4.591 5.91876 4.46274L5.49321 4.22957L5.41535 4.68925C5.35363 5.05352 5.31696 5.14893 5.23852 5.14893C5.15753 5.14893 5.09812 4.60546 5.09812 5.5903C5.06384 5.95555 5.03767 6.03665 4.9463 6.06046C4.86635 6.08137 4.83583 5.50338 4.83583 6.27724C4.83583 6.65749 4.76308 7.0027 4.6829 7.0027C4.62262 7.0027 4.51674 6.36077 4.60377 7.46793C4.60377 7.82809 4.5841 7.94076 4.51674 7.96654C4.44962 7.99226 4.20616 7.18335 4.42972 8.45426C4.42972 8.77687 4.40675 8.9221 4.35053 8.95495C4.28717 8.99208 3.91608 8.22137 4.32413 9.43467C4.3666 9.78375 4.36115 9.87951 4.29605 9.92707C4.22742 9.97718 3.85807 9.21091 4.31908 10.4206C4.40646 10.7859 4.41034 10.8648 4.34357 10.9163C4.27743 10.9673 3.80005 10.2473 4.4068 11.4005C4.51152 11.711 4.53276 11.8436 4.48669 11.899C4.44022 11.955 3.88707 11.4005 4.60168 12.3659C4.70448 12.5923 4.76482 12.8034 4.74475 12.8664C4.722 12.9379 3.9741 12.3391 4.94838 13.3407C5.09244 13.5616 5.17262 13.7425 5.15115 13.7985C5.111 13.9029 4.17715 13.295 5.49971 14.3638C5.6679 14.5453 5.70132 14.6144 5.65044 14.6756C5.59892 14.7376 4.6993 14.3088 5.93553 15.0622C6.1742 15.272 6.27625 15.4007 6.25554 15.4658C6.23361 15.5347 5.54053 15.2646 6.60405 15.8152C6.86024 15.9866 6.97587 16.0994 6.9609 16.1634C6.94506 16.2312 6.17871 16.0177 7.36545 16.482C7.63046 16.6211 7.78705 16.7382 7.77887 16.7909C7.77017 16.8468 7.04895 16.6839 8.18626 17.0483C8.47042 17.1648 8.60688 17.2519 8.60688 17.317C8.60688 17.3866 7.89018 17.2632 9.03596 17.5404C9.33097 17.6279 9.47363 17.7002 9.49232 17.7716C9.51204 17.8469 9.02149 17.8136 9.88851 17.9479C10.579 18.0836 10.8043 18.2567 11.2479 18.9925C11.774 19.8651 12.0021 20.1763 12.4208 20.5924C13.1423 21.3097 14.1576 21.8629 15.1917 22.102C15.9081 22.2677 17.1057 22.2439 17.8384 22.0494C18.8484 21.7813 19.7454 21.2522 20.5539 20.4476C22.3259 18.6841 23.4941 16.323 23.8954 13.6936C24.0909 12.4129 24.007 10.6206 23.6879 9.26198C22.6945 5.03208 19.491 1.66813 15.3077 0.461905C13.9461 0.0693118 12.12 -0.096485 10.8405 0.0562771Z" fill="white"/>
</svg>
